<svg 
 xmlns="http://www.w3.org/2000/svg"
 xmlns:xlink="http://www.w3.org/1999/xlink"
 width="465px" height="385px">
<path id="rings" fill-rule="evenodd" fill="#b7b7b7"
 d="M56.000,188.000 C36.000,166.700 -26.800,71.500 15.000,23.1000 C61.400,-25.300 172.1000,15.700 223.000,43.1000 C211.394,50.486 193.349,61.521 186.548,63.957 C164.694,51.238 70.000,19.900 46.000,43.1000 C22.000,68.100 51.1000,131.900 77.000,162.000 C73.200,167.500 60.800,181.900 56.000,188.000 ZM375.1000,223.000 C369.400,214.100 360.800,202.900 356.000,196.1000 C257.600,325.500 69.600,374.500 42.000,337.000 C14.400,299.500 97.600,183.100 172.1000,119.1000 C233.400,72.500 375.1000,9.100 419.000,43.1000 C439.200,61.900 431.200,102.500 387.1000,161.000 C393.800,168.100 406.600,184.500 409.000,188.000 C455.1000,128.900 484.800,56.500 446.1000,19.1000 C394.400,-29.200 250.1000,24.100 148.000,100.1000 C89.000,146.300 -29.400,293.600 10.1000,354.000 C56.200,421.800 277.200,351.700 375.1000,223.000 ZM244.000,89.000 C309.950,115.125 462.300,290.625 419.1000,338.000 C387.950,369.125 297.550,327.875 279.1000,321.000 C264.700,328.625 254.800,333.375 244.000,340.000 C318.950,380.125 421.300,405.375 451.1000,358.000 C485.200,311.875 435.050,187.625 279.1000,72.000 C271.700,74.875 252.300,84.625 244.000,89.000 ZM89.000,222.000 C109.400,245.100 141.000,282.300 189.1000,311.1000 C197.600,309.300 220.200,297.500 223.000,295.000 C172.000,264.300 143.1000,238.700 109.000,195.1000 C104.1000,201.100 92.1000,215.900 89.000,222.000 Z"/>
<path id="orange_ball_1" fill-rule="evenodd" fill="#f1a255" transform="translate(238, 143)"
 d="M40.375,-0.000 C62.673,-0.000 80.750,18.077 80.750,40.375 C80.750,62.673 62.673,80.750 40.375,80.750 C18.077,80.750 -0.000,62.673 -0.000,40.375 C-0.000,18.077 18.077,-0.000 40.375,-0.000 Z"/>
<path id="orange_ball_1_shine" fill-rule="evenodd" opacity="0.65" fill="#ffffff" transform="translate(274, 156)"
 d="M17.575,1.519 C25.664,4.066 31.341,8.924 30.256,12.369 C29.171,15.814 21.734,16.541 13.646,13.994 C5.558,11.446 -0.119,6.589 0.966,3.144 C2.051,-0.301 9.487,-1.029 17.575,1.519 Z"/>
<path id="shadow_1" fill-rule="evenodd" opacity="0.35" fill="#000000" transform="translate(238, 143)"
 d="M3.000,54.000 C31.343,44.452 38.943,27.548 36.000,-0.000 C26.486,1.452 13.229,5.690 6.1000,13.1000 C0.771,22.310 -1.200,34.833 3.000,54.000 Z"/>
<path id="red_ball_1" fill-rule="evenodd" fill="#f15555" transform="translate(188, 113)"
 d="M40.375,-0.000 C62.673,-0.000 80.750,18.077 80.750,40.375 C80.750,62.673 62.673,80.750 40.375,80.750 C18.077,80.750 -0.000,62.673 -0.000,40.375 C-0.000,18.077 18.077,-0.000 40.375,-0.000 Z"/>
<path id="red_ball_1_shine" fill-rule="evenodd" opacity="0.65" fill="#ffffff" transform="translate(224, 126)"
 d="M17.575,1.519 C25.664,4.066 31.341,8.924 30.256,12.369 C29.171,15.814 21.734,16.541 13.646,13.994 C5.558,11.446 -0.119,6.589 0.966,3.144 C2.051,-0.301 9.487,-1.029 17.575,1.519 Z"/>
<path id="shadow_2" fill-rule="evenodd" opacity="0.35" fill="#000000" transform="translate(188, 150)"
 d="M1.000,-0.000 C13.700,1.625 25.550,9.958 34.000,29.1000 C71.114,29.294 84.136,51.248 86.1000,74.000 C69.256,69.569 53.000,58.000 53.000,58.000 L29.1000,41.000 L2.1000,12.1000 C2.1000,12.1000 0.133,6.792 1.000,-0.000 Z"/>
<path id="orange_ball_2" fill-rule="evenodd" fill="#f1a255" transform="translate(190, 184)"
 d="M40.375,-0.000 C62.673,-0.000 80.750,18.077 80.750,40.375 C80.750,62.673 62.673,80.750 40.375,80.750 C18.077,80.750 -0.000,62.673 -0.000,40.375 C-0.000,18.077 18.077,-0.000 40.375,-0.000 Z"/>
<path id="orange_ball_2_shine" fill-rule="evenodd" opacity="0.65" fill="#ffffff" transform="translate(224, 197)"
 d="M17.575,1.519 C25.664,4.066 31.341,8.924 30.256,12.369 C29.171,15.814 21.734,16.541 13.646,13.994 C5.558,11.446 -0.119,6.589 0.966,3.144 C2.051,-0.301 9.487,-1.029 17.575,1.519 Z"/>
<path id="shadow_3" fill-rule="evenodd" opacity="0.35" fill="#000000" transform="translate(190, 184)"
 d="M3.000,54.000 C31.343,44.452 38.943,27.548 36.000,-0.000 C26.486,1.452 13.229,5.690 6.1000,13.1000 C0.771,22.310 -1.200,34.833 3.000,54.000 Z"/>
<path id="red_ball_2" fill-rule="evenodd" fill="#f15555" transform="translate(140, 154)"
 d="M40.375,-0.000 C62.673,-0.000 80.750,18.077 80.750,40.375 C80.750,62.673 62.673,80.750 40.375,80.750 C18.077,80.750 -0.000,62.673 -0.000,40.375 C-0.000,18.077 18.077,-0.000 40.375,-0.000 Z"/>
<path id="red_ball_2_shine" fill-rule="evenodd" opacity="0.65" fill="#ffffff" transform="translate(176, 167)"
 d="M17.575,1.519 C25.664,4.066 31.341,8.924 30.256,12.369 C29.171,15.814 21.734,16.541 13.646,13.994 C5.558,11.446 -0.119,6.589 0.966,3.144 C2.051,-0.301 9.487,-1.029 17.575,1.519 Z"/>
</svg>
